<svg xmlns="http://www.w3.org/2000/svg" viewBox="0 0 512 512">
  <rect width="512" height="512" rx="112" fill="#16a34a"/>
  <rect width="512" height="512" rx="112" fill="url(#g)"/>
  <defs>
    <linearGradient id="g" x1="0" y1="0" x2="0" y2="1">
      <stop offset="0" stop-color="#ffffff" stop-opacity="0.12"/>
      <stop offset="1" stop-color="#000000" stop-opacity="0.10"/>
    </linearGradient>
  </defs>
  <!-- stem -->
  <path d="M256 392 C256 300 256 240 256 150" stroke="#bbf7d0" stroke-width="18" stroke-linecap="round" fill="none"/>
  <!-- left leaf -->
  <path d="M256 300 C190 300 150 250 150 188 C214 188 256 232 256 300 Z" fill="#dcfce7"/>
  <!-- right leaf -->
  <path d="M256 250 C322 250 362 200 362 138 C298 138 256 182 256 250 Z" fill="#f0fdf4"/>
  <!-- top leaf -->
  <path d="M256 196 C256 120 296 96 340 78 C346 150 312 186 256 196 Z" fill="#dcfce7"/>
</svg>
